<?xml version="1.0" standalone="no"?>
<!DOCTYPE svg PUBLIC "-//W3C//DTD SVG 20010904//EN"
 "http://www.w3.org/TR/2001/REC-SVG-20010904/DTD/svg10.dtd">
<svg version="1.0" xmlns="http://www.w3.org/2000/svg"
 width="62.000000pt" height="60.000000pt" viewBox="0 0 62.000000 60.000000"
 preserveAspectRatio="xMidYMid meet">
<metadata>
Created by potrace 1.10, written by Peter Selinger 2001-2011
</metadata>
<g transform="translate(0.000000,60.000000) scale(0.100000,-0.100000)"
fill="#000000" stroke="none">
<path d="M217 562 c-10 -10 -17 -28 -17 -40 0 -20 -6 -21 -87 -24 -80 -3 -88
-5 -88 -23 0 -16 8 -21 38 -23 l37 -3 0 -160 c0 -186 7 -211 68 -229 22 -7 89
-10 164 -8 124 3 128 4 155 31 l28 27 3 170 4 169 31 3 c24 2 32 8 32 23 0 18
-8 20 -82 23 -79 3 -83 4 -83 26 0 41 -29 56 -112 56 -60 0 -78 -4 -91 -18z
m153 -47 c0 -12 -13 -15 -60 -15 -47 0 -60 3 -60 15 0 12 13 15 60 15 47 0 60
-3 60 -15z m-133 -31 c-3 -3 -12 -4 -19 -1 -8 3 -5 6 6 6 11 1 17 -2 13 -5z
m170 0 c-3 -3 -12 -4 -19 -1 -8 3 -5 6 6 6 11 1 17 -2 13 -5z m63 -189 c0
-202 6 -195 -164 -195 -100 0 -128 3 -140 16 -13 13 -16 43 -16 175 l0 159
160 0 160 0 0 -155z"/>
<path d="M205 407 c-3 -7 -5 -54 -3 -103 3 -81 5 -89 23 -89 19 0 20 7 20 100
0 87 -2 100 -18 103 -9 2 -19 -3 -22 -11z"/>
<path d="M285 407 c-3 -7 -5 -54 -3 -103 3 -81 5 -89 23 -89 19 0 20 7 20 100
0 87 -2 100 -18 103 -9 2 -19 -3 -22 -11z"/>
<path d="M365 407 c-3 -7 -5 -54 -3 -103 3 -81 5 -89 23 -89 19 0 20 7 20 100
0 87 -2 100 -18 103 -9 2 -19 -3 -22 -11z"/>
</g>
</svg>
