<?xml version="1.0" standalone="no"?>
<!DOCTYPE svg PUBLIC "-//W3C//DTD SVG 20010904//EN"
 "http://www.w3.org/TR/2001/REC-SVG-20010904/DTD/svg10.dtd">
<svg version="1.0" xmlns="http://www.w3.org/2000/svg"
 width="62.000000pt" height="60.000000pt" viewBox="0 0 62.000000 60.000000"
 preserveAspectRatio="xMidYMid meet">
<metadata>
Created by potrace 1.10, written by Peter Selinger 2001-2011
</metadata>
<g transform="translate(0.000000,60.000000) scale(0.100000,-0.100000)"
fill="#000000" stroke="none">
<path d="M450 514 c-11 -13 -9 -19 14 -42 l27 -27 19 23 c15 18 17 28 10 43
-13 23 -53 25 -70 3z"/>
<path d="M262 327 c-113 -114 -142 -148 -142 -170 0 -23 4 -27 28 -27 22 0 55
28 172 145 l144 144 -24 26 c-13 14 -26 25 -29 25 -4 0 -70 -64 -149 -143z
m158 96 c0 -10 -253 -263 -262 -263 -20 0 1 26 120 143 119 119 142 138 142
120z"/>
</g>
</svg>
