<?xml version="1.0" standalone="no"?>
<!DOCTYPE svg PUBLIC "-//W3C//DTD SVG 20010904//EN"
 "http://www.w3.org/TR/2001/REC-SVG-20010904/DTD/svg10.dtd">
<svg version="1.0" xmlns="http://www.w3.org/2000/svg"
 width="62.000000pt" height="60.000000pt" viewBox="0 0 62.000000 60.000000"
 preserveAspectRatio="xMidYMid meet">
<metadata>
Created by potrace 1.10, written by Peter Selinger 2001-2011
</metadata>
<g transform="translate(0.000000,60.000000) scale(0.100000,-0.100000)"
fill="#000000" stroke="none">
<path d="M455 510 l-60 -61 -5 28 c-4 20 -11 28 -25 28 -18 0 -20 -7 -20 -65
l0 -65 70 0 c63 0 70 2 70 20 0 13 -8 21 -24 23 -22 4 -20 8 34 62 39 39 56
64 52 74 -11 28 -31 18 -92 -44z m-53 -85 c3 3 11 -1 18 -10 11 -13 8 -15 -19
-15 -25 0 -31 4 -31 21 0 17 3 19 13 10 8 -6 16 -9 19 -6z"/>
<path d="M50 280 l0 -230 225 0 225 0 0 130 0 130 -25 0 -25 0 0 -105 0 -105
-175 0 -175 0 0 185 0 185 110 0 c103 0 110 1 110 20 0 19 -7 20 -135 20
l-135 0 0 -230z"/>
</g>
</svg>
