<?xml version="1.0" standalone="no"?>
<!DOCTYPE svg PUBLIC "-//W3C//DTD SVG 20010904//EN"
 "http://www.w3.org/TR/2001/REC-SVG-20010904/DTD/svg10.dtd">
<svg version="1.0" xmlns="http://www.w3.org/2000/svg"
 width="62.000000pt" height="60.000000pt" viewBox="0 0 62.000000 60.000000"
 preserveAspectRatio="xMidYMid meet">
<metadata>
Created by potrace 1.10, written by Peter Selinger 2001-2011
</metadata>
<g transform="translate(0.000000,60.000000) scale(0.100000,-0.100000)"
fill="#000000" stroke="none">
<path d="M394 516 c-8 -21 4 -36 29 -36 18 0 12 -10 -37 -59 -40 -40 -57 -65
-53 -75 11 -28 31 -18 92 44 l60 61 5 -28 c4 -20 11 -28 25 -28 18 0 20 7 20
65 l0 65 -68 3 c-52 2 -69 0 -73 -12z m116 -38 c0 -16 -3 -19 -11 -11 -6 6
-17 9 -24 7 -7 -3 -15 2 -18 10 -5 12 1 16 23 16 24 0 30 -4 30 -22z"/>
<path d="M50 280 l0 -230 225 0 225 0 0 130 0 130 -25 0 -25 0 0 -105 0 -105
-175 0 -175 0 0 185 0 185 110 0 c103 0 110 1 110 20 0 19 -7 20 -135 20
l-135 0 0 -230z"/>
</g>
</svg>
